<svg xmlns="http://www.w3.org/2000/svg" xmlns:xlink="http://www.w3.org/1999/xlink" width="500" zoomAndPan="magnify" viewBox="0 0 375 74.999997" height="100" preserveAspectRatio="xMidYMid meet" version="1.0"><defs><g/><clipPath id="6131e2c977"><path d="M 0 0 L 61.5 0 L 61.5 75 L 0 75 Z M 0 0 " clip-rule="nonzero"/></clipPath></defs><g clip-path="url(#6131e2c977)"><path fill="#e08631" d="M 52.492188 9.242188 C 53.207031 9.957031 53.882812 10.707031 54.519531 11.488281 C 55.160156 12.273438 55.757812 13.085938 56.316406 13.925781 C 56.875 14.765625 57.394531 15.636719 57.867188 16.527344 C 58.34375 17.421875 58.773438 18.335938 59.160156 19.269531 C 59.542969 20.203125 59.882812 21.15625 60.175781 22.125 C 60.46875 23.09375 60.710938 24.074219 60.910156 25.066406 C 61.105469 26.058594 61.253906 27.058594 61.351562 28.066406 C 61.449219 29.074219 61.5 30.085938 61.5 31.097656 C 61.5 32.109375 61.449219 33.121094 61.351562 34.125 C 61.253906 35.132812 61.105469 36.132812 60.910156 37.128906 C 60.710938 38.121094 60.46875 39.101562 60.175781 40.070312 C 59.882812 41.039062 59.542969 41.988281 59.160156 42.925781 C 58.773438 43.859375 58.34375 44.773438 57.867188 45.667969 C 57.394531 46.558594 56.875 47.425781 56.316406 48.269531 C 55.757812 49.109375 55.160156 49.921875 54.519531 50.703125 C 53.882812 51.488281 53.207031 52.238281 52.492188 52.953125 L 41.15625 64.347656 L 19.414062 42.480469 C 26.570312 35.285156 33.621094 38.828125 37.253906 42.480469 L 41.15625 46.40625 L 43.574219 43.976562 C 43.996094 43.554688 44.394531 43.113281 44.769531 42.648438 C 45.148438 42.1875 45.5 41.710938 45.832031 41.214844 C 46.160156 40.71875 46.464844 40.207031 46.746094 39.679688 C 47.027344 39.152344 47.28125 38.613281 47.507812 38.0625 C 47.734375 37.511719 47.933594 36.949219 48.105469 36.378906 C 48.28125 35.804688 48.421875 35.226562 48.539062 34.640625 C 48.65625 34.054688 48.742188 33.464844 48.800781 32.871094 C 48.859375 32.277344 48.886719 31.683594 48.886719 31.085938 C 48.886719 30.488281 48.859375 29.890625 48.800781 29.296875 C 48.742188 28.703125 48.65625 28.113281 48.539062 27.527344 C 48.425781 26.941406 48.28125 26.363281 48.109375 25.792969 C 47.933594 25.222656 47.734375 24.660156 47.507812 24.109375 C 47.28125 23.558594 47.027344 23.019531 46.746094 22.492188 C 46.46875 21.964844 46.164062 21.453125 45.832031 20.957031 C 45.503906 20.460938 45.148438 19.980469 44.773438 19.519531 C 44.394531 19.058594 43.996094 18.617188 43.578125 18.195312 C 43.15625 17.773438 42.71875 17.371094 42.257812 16.992188 C 41.796875 16.613281 41.320312 16.257812 40.828125 15.925781 C 40.335938 15.59375 39.824219 15.289062 39.300781 15.007812 C 38.777344 14.726562 38.242188 14.46875 37.691406 14.242188 C 37.144531 14.011719 36.585938 13.8125 36.015625 13.640625 C 35.449219 13.464844 34.871094 13.320312 34.289062 13.203125 C 33.707031 13.085938 33.121094 13 32.53125 12.941406 C 31.9375 12.882812 31.34375 12.855469 30.75 12.855469 C 30.15625 12.855469 29.566406 12.882812 28.972656 12.941406 C 28.382812 13 27.796875 13.085938 27.214844 13.203125 C 26.628906 13.320312 26.054688 13.464844 25.488281 13.640625 C 24.917969 13.8125 24.359375 14.011719 23.8125 14.242188 C 23.261719 14.46875 22.726562 14.726562 22.203125 15.007812 C 21.679688 15.289062 21.167969 15.59375 20.675781 15.925781 C 20.179688 16.257812 19.703125 16.613281 19.246094 16.992188 C 18.785156 17.371094 18.347656 17.773438 17.925781 18.195312 C 17.507812 18.617188 17.109375 19.058594 16.730469 19.519531 C 16.355469 19.980469 16 20.460938 15.671875 20.957031 C 15.339844 21.453125 15.035156 21.964844 14.757812 22.492188 C 14.476562 23.019531 14.222656 23.558594 13.996094 24.109375 C 13.769531 24.660156 13.566406 25.222656 13.394531 25.792969 C 13.222656 26.363281 13.078125 26.941406 12.964844 27.527344 C 12.847656 28.113281 12.761719 28.703125 12.703125 29.296875 C 12.644531 29.890625 12.613281 30.488281 12.613281 31.085938 C 12.613281 31.683594 12.644531 32.277344 12.703125 32.871094 C 12.761719 33.464844 12.847656 34.054688 12.964844 34.640625 C 13.078125 35.226562 13.222656 35.804688 13.394531 36.378906 C 13.570312 36.949219 13.769531 37.511719 13.996094 38.0625 C 14.222656 38.613281 14.476562 39.152344 14.757812 39.679688 C 15.035156 40.207031 15.34375 40.71875 15.671875 41.214844 C 16.003906 41.710938 16.355469 42.1875 16.734375 42.648438 C 17.109375 43.113281 17.507812 43.554688 17.929688 43.976562 L 30.75 56.875 C 31.269531 57.398438 39.449219 66.066406 30.75 74.8125 L 9.007812 52.953125 C 8.300781 52.234375 7.628906 51.484375 6.996094 50.703125 C 6.363281 49.917969 5.769531 49.105469 5.214844 48.265625 C 4.660156 47.425781 4.148438 46.558594 3.679688 45.664062 C 3.207031 44.773438 2.785156 43.859375 2.402344 42.925781 C 2.023438 41.992188 1.6875 41.042969 1.398438 40.078125 C 1.109375 39.109375 0.871094 38.132812 0.675781 37.140625 C 0.484375 36.152344 0.339844 35.152344 0.242188 34.148438 C 0.148438 33.144531 0.101562 32.136719 0.105469 31.128906 C 0.105469 30.117188 0.15625 29.113281 0.257812 28.109375 C 0.359375 27.105469 0.507812 26.105469 0.707031 25.117188 C 0.902344 24.128906 1.148438 23.152344 1.441406 22.183594 C 1.734375 21.21875 2.074219 20.269531 2.457031 19.339844 C 2.84375 18.40625 3.273438 17.496094 3.746094 16.605469 C 4.222656 15.71875 4.738281 14.851562 5.296875 14.015625 C 5.855469 13.175781 6.453125 12.367188 7.089844 11.585938 C 7.726562 10.804688 8.398438 10.058594 9.109375 9.347656 C 9.820312 8.632812 10.5625 7.957031 11.339844 7.316406 C 12.113281 6.675781 12.921875 6.074219 13.753906 5.511719 C 14.589844 4.953125 15.449219 4.433594 16.335938 3.957031 C 17.21875 3.480469 18.125 3.046875 19.050781 2.660156 C 19.980469 2.273438 20.921875 1.933594 21.882812 1.636719 C 22.84375 1.34375 23.816406 1.097656 24.800781 0.898438 C 25.785156 0.699219 26.777344 0.550781 27.777344 0.449219 C 28.773438 0.347656 29.777344 0.296875 30.78125 0.292969 C 31.785156 0.292969 32.785156 0.339844 33.785156 0.433594 C 34.785156 0.53125 35.777344 0.675781 36.761719 0.871094 C 37.75 1.0625 38.722656 1.304688 39.683594 1.59375 C 40.644531 1.886719 41.589844 2.222656 42.519531 2.605469 C 43.449219 2.988281 44.355469 3.414062 45.242188 3.886719 C 46.132812 4.359375 46.992188 4.875 47.832031 5.429688 C 48.667969 5.988281 49.476562 6.585938 50.253906 7.222656 C 51.035156 7.859375 51.78125 8.53125 52.492188 9.242188 Z M 52.492188 9.242188 " fill-opacity="1" fill-rule="evenodd"/></g><path fill="#e08631" d="M 24.222656 45.144531 L 20.5 41.398438 C 19.136719 40.035156 18.089844 38.460938 17.351562 36.675781 C 16.617188 34.890625 16.25 33.03125 16.25 31.097656 C 16.25 30.882812 16.175781 30.703125 16.023438 30.554688 C 15.875 30.402344 15.695312 30.328125 15.484375 30.328125 C 15.273438 30.328125 15.089844 30.402344 14.941406 30.554688 C 14.792969 30.703125 14.71875 30.886719 14.71875 31.097656 C 14.714844 33.234375 15.121094 35.289062 15.9375 37.261719 C 16.75 39.234375 17.910156 40.972656 19.414062 42.480469 L 24.222656 47.316406 Z M 24.222656 45.144531 " fill-opacity="1" fill-rule="evenodd"/><path fill="#4b0027" d="M 30.75 46.121094 C 31.070312 46.121094 31.378906 46.0625 31.671875 45.9375 C 31.96875 45.8125 32.230469 45.640625 32.457031 45.410156 C 32.683594 45.183594 32.859375 44.921875 32.980469 44.625 C 33.101562 44.328125 33.164062 44.019531 33.164062 43.695312 C 33.164062 43.375 33.101562 43.066406 32.980469 42.765625 C 32.859375 42.46875 32.683594 42.207031 32.457031 41.980469 C 32.230469 41.753906 31.96875 41.578125 31.671875 41.453125 C 31.378906 41.332031 31.070312 41.269531 30.75 41.269531 C 30.429688 41.269531 30.121094 41.332031 29.828125 41.453125 C 29.53125 41.578125 29.269531 41.753906 29.042969 41.980469 C 28.816406 42.207031 28.640625 42.46875 28.519531 42.765625 C 28.398438 43.066406 28.335938 43.375 28.335938 43.695312 C 28.335938 44.015625 28.398438 44.328125 28.519531 44.625 C 28.644531 44.921875 28.816406 45.183594 29.042969 45.410156 C 29.269531 45.636719 29.53125 45.8125 29.828125 45.9375 C 30.121094 46.058594 30.429688 46.121094 30.75 46.121094 Z M 30.75 46.121094 " fill-opacity="1" fill-rule="evenodd"/><g fill="#e18631" fill-opacity="1"><g transform="translate(66.097868, 52.183112)"><g><path d="M 3.625 10.25 L 3.625 -27.609375 L 10.296875 -27.609375 L 10.859375 -24.890625 L 11.078125 -24.890625 C 12.148438 -25.847656 13.363281 -26.648438 14.71875 -27.296875 C 16.070312 -27.953125 17.472656 -28.28125 18.921875 -28.28125 C 20.597656 -28.28125 22.101562 -27.945312 23.4375 -27.28125 C 24.769531 -26.613281 25.898438 -25.664062 26.828125 -24.4375 C 27.753906 -23.21875 28.46875 -21.742188 28.96875 -20.015625 C 29.476562 -18.285156 29.734375 -16.363281 29.734375 -14.25 C 29.734375 -11.875 29.40625 -9.765625 28.75 -7.921875 C 28.101562 -6.085938 27.234375 -4.53125 26.140625 -3.25 C 25.046875 -1.976562 23.800781 -1.003906 22.40625 -0.328125 C 21.007812 0.335938 19.570312 0.671875 18.09375 0.671875 C 16.90625 0.671875 15.753906 0.421875 14.640625 -0.078125 C 13.523438 -0.578125 12.488281 -1.296875 11.53125 -2.234375 L 11.796875 2.171875 L 11.796875 10.25 Z M 16.203125 -6.015625 C 17.609375 -6.015625 18.8125 -6.65625 19.8125 -7.9375 C 20.820312 -9.21875 21.328125 -11.285156 21.328125 -14.140625 C 21.328125 -19.109375 19.726562 -21.59375 16.53125 -21.59375 C 14.9375 -21.59375 13.359375 -20.757812 11.796875 -19.09375 L 11.796875 -7.796875 C 12.546875 -7.128906 13.289062 -6.664062 14.03125 -6.40625 C 14.769531 -6.144531 15.492188 -6.015625 16.203125 -6.015625 Z M 16.203125 -6.015625 "/></g></g></g><g fill="#e18631" fill-opacity="1"><g transform="translate(97.993373, 52.183112)"><g><path d="M 11.140625 0.671875 C 9.722656 0.671875 8.53125 0.445312 7.5625 0 C 6.601562 -0.445312 5.832031 -1.066406 5.25 -1.859375 C 4.675781 -2.660156 4.257812 -3.625 4 -4.75 C 3.75 -5.882812 3.625 -7.160156 3.625 -8.578125 L 3.625 -39.03125 L 11.796875 -39.03125 L 11.796875 -8.234375 C 11.796875 -7.378906 11.953125 -6.785156 12.265625 -6.453125 C 12.585938 -6.117188 12.914062 -5.953125 13.25 -5.953125 C 13.4375 -5.953125 13.59375 -5.953125 13.71875 -5.953125 C 13.851562 -5.953125 14.03125 -5.988281 14.25 -6.0625 L 15.25 0 C 14.8125 0.1875 14.25 0.34375 13.5625 0.46875 C 12.875 0.601562 12.066406 0.671875 11.140625 0.671875 Z M 11.140625 0.671875 "/></g></g></g><g fill="#e18631" fill-opacity="1"><g transform="translate(113.913294, 52.183112)"><g><path d="M 10.578125 0.671875 C 9.316406 0.671875 8.175781 0.457031 7.15625 0.03125 C 6.132812 -0.394531 5.269531 -0.988281 4.5625 -1.75 C 3.851562 -2.507812 3.304688 -3.390625 2.921875 -4.390625 C 2.535156 -5.398438 2.34375 -6.5 2.34375 -7.6875 C 2.34375 -10.582031 3.566406 -12.84375 6.015625 -14.46875 C 8.460938 -16.101562 12.414062 -17.203125 17.875 -17.765625 C 17.800781 -18.984375 17.4375 -19.953125 16.78125 -20.671875 C 16.132812 -21.398438 15.050781 -21.765625 13.53125 -21.765625 C 12.34375 -21.765625 11.160156 -21.539062 9.984375 -21.09375 C 8.816406 -20.65625 7.566406 -20.046875 6.234375 -19.265625 L 3.28125 -24.65625 C 5.0625 -25.738281 6.925781 -26.613281 8.875 -27.28125 C 10.820312 -27.945312 12.894531 -28.28125 15.09375 -28.28125 C 18.65625 -28.28125 21.367188 -27.269531 23.234375 -25.25 C 25.109375 -23.226562 26.046875 -20.082031 26.046875 -15.8125 L 26.046875 0 L 19.375 0 L 18.8125 -2.84375 L 18.59375 -2.84375 C 17.40625 -1.800781 16.160156 -0.953125 14.859375 -0.296875 C 13.566406 0.347656 12.140625 0.671875 10.578125 0.671875 Z M 13.359375 -5.671875 C 14.285156 -5.671875 15.082031 -5.875 15.75 -6.28125 C 16.414062 -6.695312 17.125 -7.273438 17.875 -8.015625 L 17.875 -12.859375 C 14.976562 -12.453125 12.972656 -11.859375 11.859375 -11.078125 C 10.742188 -10.296875 10.1875 -9.367188 10.1875 -8.296875 C 10.1875 -7.398438 10.472656 -6.738281 11.046875 -6.3125 C 11.617188 -5.882812 12.390625 -5.671875 13.359375 -5.671875 Z M 13.359375 -5.671875 "/></g></g></g><g fill="#e18631" fill-opacity="1"><g transform="translate(143.248253, 52.183112)"><g><path d="M 15.640625 0.671875 C 13.710938 0.671875 11.921875 0.347656 10.265625 -0.296875 C 8.617188 -0.953125 7.179688 -1.890625 5.953125 -3.109375 C 4.734375 -4.335938 3.769531 -5.851562 3.0625 -7.65625 C 2.351562 -9.457031 2 -11.507812 2 -13.8125 C 2 -16.113281 2.390625 -18.160156 3.171875 -19.953125 C 3.953125 -21.753906 5 -23.265625 6.3125 -24.484375 C 7.632812 -25.710938 9.164062 -26.648438 10.90625 -27.296875 C 12.65625 -27.953125 14.476562 -28.28125 16.375 -28.28125 C 18.070312 -28.28125 19.578125 -28 20.890625 -27.4375 C 22.210938 -26.882812 23.394531 -26.179688 24.4375 -25.328125 L 20.59375 -20.046875 C 19.300781 -21.117188 18.0625 -21.65625 16.875 -21.65625 C 14.863281 -21.65625 13.28125 -20.945312 12.125 -19.53125 C 10.976562 -18.125 10.40625 -16.21875 10.40625 -13.8125 C 10.40625 -11.394531 10.988281 -9.476562 12.15625 -8.0625 C 13.332031 -6.65625 14.8125 -5.953125 16.59375 -5.953125 C 17.476562 -5.953125 18.335938 -6.144531 19.171875 -6.53125 C 20.015625 -6.925781 20.804688 -7.40625 21.546875 -7.96875 L 24.78125 -2.609375 C 23.40625 -1.421875 21.914062 -0.578125 20.3125 -0.078125 C 18.71875 0.421875 17.160156 0.671875 15.640625 0.671875 Z M 15.640625 0.671875 "/></g></g></g><g fill="#e18631" fill-opacity="1"><g transform="translate(169.243367, 52.183112)"><g><path d="M 15.984375 0.671875 C 14.015625 0.671875 12.175781 0.347656 10.46875 -0.296875 C 8.757812 -0.953125 7.273438 -1.898438 6.015625 -3.140625 C 4.753906 -4.390625 3.769531 -5.90625 3.0625 -7.6875 C 2.351562 -9.46875 2 -11.507812 2 -13.8125 C 2 -16.03125 2.367188 -18.039062 3.109375 -19.84375 C 3.859375 -21.644531 4.832031 -23.164062 6.03125 -24.40625 C 7.238281 -25.65625 8.625 -26.613281 10.1875 -27.28125 C 11.75 -27.945312 13.363281 -28.28125 15.03125 -28.28125 C 17 -28.28125 18.710938 -27.945312 20.171875 -27.28125 C 21.640625 -26.613281 22.863281 -25.6875 23.84375 -24.5 C 24.832031 -23.3125 25.566406 -21.910156 26.046875 -20.296875 C 26.535156 -18.679688 26.78125 -16.925781 26.78125 -15.03125 C 26.78125 -14.289062 26.742188 -13.582031 26.671875 -12.90625 C 26.597656 -12.238281 26.519531 -11.738281 26.4375 -11.40625 L 9.90625 -11.40625 C 10.28125 -9.40625 11.109375 -7.929688 12.390625 -6.984375 C 13.671875 -6.035156 15.238281 -5.5625 17.09375 -5.5625 C 19.0625 -5.5625 21.046875 -6.175781 23.046875 -7.40625 L 25.78125 -2.453125 C 24.363281 -1.484375 22.789062 -0.71875 21.0625 -0.15625 C 19.34375 0.394531 17.648438 0.671875 15.984375 0.671875 Z M 9.859375 -16.8125 L 19.8125 -16.8125 C 19.8125 -18.375 19.457031 -19.632812 18.75 -20.59375 C 18.050781 -21.5625 16.867188 -22.046875 15.203125 -22.046875 C 13.898438 -22.046875 12.753906 -21.617188 11.765625 -20.765625 C 10.785156 -19.910156 10.148438 -18.59375 9.859375 -16.8125 Z M 9.859375 -16.8125 "/></g></g></g><g fill="#212121" fill-opacity="1"><g transform="translate(198.086142, 52.183112)"><g><path d="M 3.625 10.25 L 3.625 -27.609375 L 10.296875 -27.609375 L 10.859375 -24.890625 L 11.078125 -24.890625 C 12.148438 -25.847656 13.363281 -26.648438 14.71875 -27.296875 C 16.070312 -27.953125 17.472656 -28.28125 18.921875 -28.28125 C 20.597656 -28.28125 22.101562 -27.945312 23.4375 -27.28125 C 24.769531 -26.613281 25.898438 -25.664062 26.828125 -24.4375 C 27.753906 -23.21875 28.46875 -21.742188 28.96875 -20.015625 C 29.476562 -18.285156 29.734375 -16.363281 29.734375 -14.25 C 29.734375 -11.875 29.40625 -9.765625 28.75 -7.921875 C 28.101562 -6.085938 27.234375 -4.53125 26.140625 -3.25 C 25.046875 -1.976562 23.800781 -1.003906 22.40625 -0.328125 C 21.007812 0.335938 19.570312 0.671875 18.09375 0.671875 C 16.90625 0.671875 15.753906 0.421875 14.640625 -0.078125 C 13.523438 -0.578125 12.488281 -1.296875 11.53125 -2.234375 L 11.796875 2.171875 L 11.796875 10.25 Z M 16.203125 -6.015625 C 17.609375 -6.015625 18.8125 -6.65625 19.8125 -7.9375 C 20.820312 -9.21875 21.328125 -11.285156 21.328125 -14.140625 C 21.328125 -19.109375 19.726562 -21.59375 16.53125 -21.59375 C 14.9375 -21.59375 13.359375 -20.757812 11.796875 -19.09375 L 11.796875 -7.796875 C 12.546875 -7.128906 13.289062 -6.664062 14.03125 -6.40625 C 14.769531 -6.144531 15.492188 -6.015625 16.203125 -6.015625 Z M 16.203125 -6.015625 "/></g></g></g><g fill="#212121" fill-opacity="1"><g transform="translate(229.981647, 52.183112)"><g><path d="M 6.6875 10.796875 C 5.832031 10.796875 5.109375 10.75 4.515625 10.65625 C 3.921875 10.5625 3.34375 10.425781 2.78125 10.25 L 4.234375 4.015625 C 4.492188 4.085938 4.789062 4.160156 5.125 4.234375 C 5.457031 4.304688 5.769531 4.34375 6.0625 4.34375 C 7.4375 4.34375 8.492188 4.007812 9.234375 3.34375 C 9.984375 2.675781 10.539062 1.800781 10.90625 0.71875 L 11.296875 -0.71875 L 0.671875 -27.609375 L 8.90625 -27.609375 L 12.859375 -15.75 C 13.265625 -14.488281 13.632812 -13.207031 13.96875 -11.90625 C 14.300781 -10.613281 14.65625 -9.28125 15.03125 -7.90625 L 15.25 -7.90625 C 15.550781 -9.207031 15.859375 -10.515625 16.171875 -11.828125 C 16.484375 -13.148438 16.804688 -14.457031 17.140625 -15.75 L 20.484375 -27.609375 L 28.34375 -27.609375 L 18.765625 0.28125 C 18.097656 2.019531 17.398438 3.546875 16.671875 4.859375 C 15.953125 6.179688 15.117188 7.28125 14.171875 8.15625 C 13.222656 9.03125 12.144531 9.6875 10.9375 10.125 C 9.726562 10.570312 8.3125 10.796875 6.6875 10.796875 Z M 6.6875 10.796875 "/></g></g></g><g fill="#212121" fill-opacity="1"><g transform="translate(258.982622, 52.183112)"><g><path d="M 14.25 0.671875 C 12.539062 0.671875 11.082031 0.410156 9.875 -0.109375 C 8.675781 -0.628906 7.695312 -1.351562 6.9375 -2.28125 C 6.175781 -3.207031 5.617188 -4.328125 5.265625 -5.640625 C 4.910156 -6.960938 4.734375 -8.421875 4.734375 -10.015625 L 4.734375 -21.21875 L 0.953125 -21.21875 L 0.953125 -27.28125 L 5.171875 -27.609375 L 6.125 -34.96875 L 12.921875 -34.96875 L 12.921875 -27.609375 L 19.546875 -27.609375 L 19.546875 -21.21875 L 12.921875 -21.21875 L 12.921875 -10.125 C 12.921875 -8.570312 13.242188 -7.453125 13.890625 -6.765625 C 14.535156 -6.078125 15.398438 -5.734375 16.484375 -5.734375 C 16.921875 -5.734375 17.367188 -5.785156 17.828125 -5.890625 C 18.296875 -6.003906 18.71875 -6.140625 19.09375 -6.296875 L 20.375 -0.328125 C 19.632812 -0.109375 18.757812 0.109375 17.75 0.328125 C 16.75 0.554688 15.582031 0.671875 14.25 0.671875 Z M 14.25 0.671875 "/></g></g></g><g fill="#212121" fill-opacity="1"><g transform="translate(280.301956, 52.183112)"><g><path d="M 3.625 0 L 3.625 -39.03125 L 11.796875 -39.03125 L 11.796875 -29.453125 L 11.40625 -24.5 C 12.445312 -25.425781 13.65625 -26.285156 15.03125 -27.078125 C 16.40625 -27.878906 18.039062 -28.28125 19.9375 -28.28125 C 22.9375 -28.28125 25.113281 -27.296875 26.46875 -25.328125 C 27.820312 -23.359375 28.5 -20.628906 28.5 -17.140625 L 28.5 0 L 20.3125 0 L 20.3125 -16.09375 C 20.3125 -18.09375 20.039062 -19.460938 19.5 -20.203125 C 18.96875 -20.953125 18.109375 -21.328125 16.921875 -21.328125 C 15.878906 -21.328125 14.988281 -21.09375 14.25 -20.625 C 13.507812 -20.164062 12.691406 -19.507812 11.796875 -18.65625 L 11.796875 0 Z M 3.625 0 "/></g></g></g><g fill="#212121" fill-opacity="1"><g transform="translate(312.086133, 52.183112)"><g><path d="M 15.484375 0.671875 C 13.734375 0.671875 12.039062 0.347656 10.40625 -0.296875 C 8.78125 -0.953125 7.34375 -1.890625 6.09375 -3.109375 C 4.851562 -4.335938 3.859375 -5.851562 3.109375 -7.65625 C 2.367188 -9.457031 2 -11.507812 2 -13.8125 C 2 -16.113281 2.367188 -18.160156 3.109375 -19.953125 C 3.859375 -21.753906 4.851562 -23.265625 6.09375 -24.484375 C 7.34375 -25.710938 8.78125 -26.648438 10.40625 -27.296875 C 12.039062 -27.953125 13.734375 -28.28125 15.484375 -28.28125 C 17.222656 -28.28125 18.898438 -27.953125 20.515625 -27.296875 C 22.128906 -26.648438 23.554688 -25.710938 24.796875 -24.484375 C 26.046875 -23.265625 27.039062 -21.753906 27.78125 -19.953125 C 28.519531 -18.160156 28.890625 -16.113281 28.890625 -13.8125 C 28.890625 -11.507812 28.519531 -9.457031 27.78125 -7.65625 C 27.039062 -5.851562 26.046875 -4.335938 24.796875 -3.109375 C 23.554688 -1.890625 22.128906 -0.953125 20.515625 -0.296875 C 18.898438 0.347656 17.222656 0.671875 15.484375 0.671875 Z M 15.484375 -5.953125 C 17.148438 -5.953125 18.410156 -6.65625 19.265625 -8.0625 C 20.117188 -9.476562 20.546875 -11.394531 20.546875 -13.8125 C 20.546875 -16.21875 20.117188 -18.125 19.265625 -19.53125 C 18.410156 -20.945312 17.148438 -21.65625 15.484375 -21.65625 C 13.773438 -21.65625 12.5 -20.945312 11.65625 -19.53125 C 10.820312 -18.125 10.40625 -16.21875 10.40625 -13.8125 C 10.40625 -11.394531 10.820312 -9.476562 11.65625 -8.0625 C 12.5 -6.65625 13.773438 -5.953125 15.484375 -5.953125 Z M 15.484375 -5.953125 "/></g></g></g><g fill="#212121" fill-opacity="1"><g transform="translate(342.979685, 52.183112)"><g><path d="M 3.625 0 L 3.625 -27.609375 L 10.296875 -27.609375 L 10.859375 -24.109375 L 11.078125 -24.109375 C 12.265625 -25.222656 13.5625 -26.195312 14.96875 -27.03125 C 16.382812 -27.863281 18.039062 -28.28125 19.9375 -28.28125 C 22.9375 -28.28125 25.113281 -27.296875 26.46875 -25.328125 C 27.820312 -23.359375 28.5 -20.628906 28.5 -17.140625 L 28.5 0 L 20.3125 0 L 20.3125 -16.09375 C 20.3125 -18.09375 20.039062 -19.460938 19.5 -20.203125 C 18.96875 -20.953125 18.109375 -21.328125 16.921875 -21.328125 C 15.878906 -21.328125 14.988281 -21.09375 14.25 -20.625 C 13.507812 -20.164062 12.691406 -19.507812 11.796875 -18.65625 L 11.796875 0 Z M 3.625 0 "/></g></g></g></svg>